<svg width="1073" height="833" viewBox="0 0 1073 833" fill="none" xmlns="http://www.w3.org/2000/svg">
<rect width="1073" height="833" rx="20" fill="#D9D9D9"/>
<g clip-path="url(#clip0_630_327)">
<g filter="url(#filter0_d_630_327)">
<path d="M735.903 749.28L719.743 749.279L712.057 686.954H735.906L735.903 749.28Z" fill="#FFB6B6"/>
</g>
<g filter="url(#filter1_d_630_327)">
<path d="M735.472 744.001L718.219 736.984L717.724 736.781L708.199 744.001C702.82 744.002 697.662 746.139 693.859 749.942C690.056 753.745 687.919 758.903 687.918 764.281V764.94H740.019V744.001H735.472Z" fill="#2F2E41"/>
</g>
<g filter="url(#filter2_d_630_327)">
<path d="M881.913 728.271L867.451 735.479L832.766 683.127L854.112 672.489L881.913 728.271Z" fill="#FFB6B6"/>
</g>
<g filter="url(#filter3_d_630_327)">
<path d="M883.251 721.708L879.552 723.545L879.172 723.735L860.627 725.166L860.07 725.204L854.762 735.907C852.378 737.095 850.252 738.741 848.505 740.751C846.757 742.761 845.423 745.095 844.578 747.621C843.734 750.146 843.395 752.814 843.582 755.47C843.769 758.127 844.477 760.72 845.667 763.103L845.958 763.686L892.587 740.455L883.251 721.708Z" fill="#2F2E41"/>
</g>
<g filter="url(#filter4_d_630_327)">
<path d="M724.943 414.285L814.048 417.404L814.669 416.501C814.669 416.501 822.27 434.235 822.27 449.435C822.27 454.489 818.755 487.543 820.542 493.797C820.764 494.575 819.235 496.481 819.736 500.102C820.062 502.453 821.857 500.645 822.27 503.902C822.566 506.241 819.406 507.531 819.736 510.236C820.097 513.191 824.445 522.762 824.836 526.049C829.002 561.042 834.549 611.737 834.549 611.737C834.549 611.737 856.826 671.402 861.539 672.371C869.449 673.998 874.79 688.38 870.406 691.371C868.319 692.796 841.341 702.377 841.341 702.377C839.859 702.645 835.222 700.319 838.176 694.819C838.72 693.807 835.476 696.383 834.937 695.171C834.364 693.882 835.489 688.753 834.833 687.322C828.937 674.474 819.885 656.669 811.307 647.526C798.632 634.018 790.605 616.814 788.398 598.423L768.722 489.33L761.978 519.922L756.398 525.436L757.929 538.292L757.665 550.77L743.731 602.704C743.731 602.704 741.641 699.691 744.998 702.771C746.815 704.439 754.529 724.986 739.931 726.838L713.407 724.792C713.407 724.792 709.833 717.262 711.62 714.581C713.407 711.901 713.3 712.633 711.12 708.247C708.94 703.861 709.833 696.429 709.833 696.429C706.359 661.501 704.988 626.396 705.728 591.303C707.058 533.666 715.115 467.451 715.115 466.102C715.183 464.723 714.929 463.347 714.373 462.083V458.445L717.796 445.554L724.943 414.285Z" fill="#2F2E41"/>
</g>
<g filter="url(#filter5_d_630_327)">
<path d="M850.336 425.181C869.771 425.181 885.526 409.426 885.526 389.992C885.526 370.558 869.771 354.804 850.336 354.804C830.901 354.804 815.145 370.558 815.145 389.992C815.145 409.426 830.901 425.181 850.336 425.181Z" fill="#8984C6"/>
</g>
<g filter="url(#filter6_d_630_327)">
<path d="M845.535 408.305C844.927 408.305 844.328 408.164 843.784 407.892C843.241 407.62 842.768 407.225 842.404 406.739L832.803 393.939C832.495 393.528 832.27 393.06 832.143 392.562C832.015 392.064 831.987 391.546 832.06 391.037C832.132 390.528 832.305 390.039 832.566 389.596C832.828 389.154 833.175 388.768 833.586 388.459C833.997 388.151 834.465 387.927 834.963 387.799C835.461 387.672 835.98 387.643 836.488 387.716C836.997 387.789 837.487 387.961 837.929 388.223C838.371 388.485 838.758 388.831 839.066 389.242L845.347 397.616L861.479 373.42C861.764 372.992 862.13 372.624 862.558 372.337C862.985 372.051 863.464 371.851 863.969 371.75C864.473 371.649 864.992 371.648 865.497 371.748C866.001 371.848 866.482 372.046 866.909 372.331C867.337 372.617 867.705 372.983 867.991 373.411C868.277 373.838 868.476 374.318 868.577 374.822C868.678 375.327 868.678 375.846 868.578 376.35C868.478 376.855 868.279 377.335 867.993 377.762L848.792 406.562C848.445 407.083 847.978 407.513 847.43 407.816C846.882 408.119 846.27 408.286 845.644 408.304C845.607 408.305 845.571 408.305 845.535 408.305Z" fill="white"/>
</g>
<g filter="url(#filter7_d_630_327)">
<path d="M867.736 427.192C868.079 425.753 868.103 424.256 867.805 422.807C867.507 421.358 866.895 419.992 866.012 418.806C865.128 417.619 863.996 416.64 862.694 415.938C861.391 415.237 859.951 414.829 858.474 414.744L840.443 353.312L828.245 367.468L847.651 424.986C847.673 427.477 848.608 429.873 850.278 431.72C851.948 433.567 854.239 434.738 856.714 435.01C859.19 435.282 861.68 434.636 863.711 433.195C865.742 431.754 867.175 429.618 867.736 427.192V427.192Z" fill="#FFB8B8"/>
</g>
<g filter="url(#filter8_d_630_327)">
<path d="M855.016 397.223L852.672 388.634L855.358 383.504L855.155 382.909L854.344 380.604L850.139 377.234L851.646 372.94L846.326 357.829L845.021 355.207L814.479 293.887L807.158 279.181L805.46 276.52L800.178 268.236L792.957 256.925C791.809 255.117 790.313 253.555 788.556 252.331C786.799 251.107 784.816 250.244 782.722 249.794C782.045 249.645 781.36 249.539 780.67 249.477L780.176 249.439C778.943 249.371 777.706 249.443 776.489 249.654H776.464C774.32 250.026 772.276 250.837 770.46 252.036C769.03 252.961 767.756 254.107 766.685 255.43C764.219 258.489 762.937 262.334 763.074 266.26L763.302 272.442L763.53 278.066L774.247 297.446L774.944 298.713L774.957 298.751L807.93 358.411L817.874 376.398L819.382 379.134L826.07 383.568L824.284 388.026L824.803 394.968L830.491 399.262L838.738 407.635L839.067 408.319L841.601 407.039L841.841 406.913L842.411 406.748L850.253 404.379L855.016 402.948L855.168 402.897L856.472 402.568L855.016 397.223Z" fill="#E6E6E6"/>
</g>
<g filter="url(#filter9_d_630_327)">
<path d="M460.378 204.879H457.844V107.29H641.089V109.823H460.378V204.879Z" fill="#3F3D56"/>
</g>
<g filter="url(#filter10_d_630_327)">
<path d="M669.189 136.377C688.625 136.377 704.38 120.622 704.38 101.188C704.38 81.7544 688.625 66 669.189 66C649.754 66 633.999 81.7544 633.999 101.188C633.999 120.622 649.754 136.377 669.189 136.377Z" fill="#8984C6"/>
</g>
<g filter="url(#filter11_d_630_327)">
<path d="M664.389 119.503C663.781 119.503 663.182 119.361 662.638 119.089C662.095 118.817 661.622 118.423 661.258 117.937L651.657 105.136C651.349 104.725 651.124 104.257 650.997 103.759C650.869 103.261 650.841 102.743 650.914 102.234C650.986 101.726 651.159 101.236 651.421 100.794C651.682 100.351 652.029 99.965 652.44 99.6566C652.851 99.3482 653.319 99.1239 653.817 98.9963C654.315 98.8688 654.834 98.8405 655.342 98.9132C655.851 98.9859 656.341 99.1582 656.783 99.4201C657.225 99.682 657.612 100.028 657.92 100.44L664.201 108.813L680.333 84.6171C680.618 84.1889 680.985 83.821 681.412 83.5345C681.839 83.248 682.318 83.0486 682.823 82.9475C683.327 82.8464 683.846 82.8456 684.351 82.9453C684.856 83.045 685.336 83.2432 685.764 83.5285C686.192 83.8138 686.559 84.1806 686.845 84.6081C687.131 85.0355 687.33 85.5151 687.431 86.0195C687.532 86.5239 687.532 87.0431 687.432 87.5476C687.332 88.0521 687.133 88.5319 686.847 88.9596L667.646 117.759C667.299 118.28 666.832 118.71 666.284 119.013C665.736 119.316 665.124 119.484 664.498 119.501C664.461 119.502 664.425 119.503 664.389 119.503Z" fill="white"/>
</g>
<g filter="url(#filter12_d_630_327)">
<path d="M336.236 441.806H333.702V539.395H516.947V536.861H336.236V441.806Z" fill="#3F3D56"/>
</g>
<g filter="url(#filter13_d_630_327)">
<path d="M545.047 574.648C564.483 574.648 580.238 558.894 580.238 539.46C580.238 520.026 564.483 504.271 545.047 504.271C525.612 504.271 509.857 520.026 509.857 539.46C509.857 558.894 525.612 574.648 545.047 574.648Z" fill="#8984C6"/>
</g>
<g filter="url(#filter14_d_630_327)">
<path d="M540.247 557.774C539.639 557.774 539.04 557.633 538.496 557.361C537.953 557.089 537.48 556.694 537.115 556.208L527.515 543.408C527.207 542.997 526.982 542.529 526.855 542.031C526.727 541.533 526.699 541.015 526.772 540.506C526.844 539.997 527.016 539.507 527.278 539.065C527.54 538.623 527.887 538.237 528.298 537.928C528.709 537.62 529.177 537.395 529.675 537.268C530.173 537.14 530.691 537.112 531.2 537.185C531.709 537.257 532.199 537.43 532.641 537.692C533.083 537.953 533.47 538.3 533.778 538.711L540.059 547.085L556.191 522.889C556.476 522.46 556.842 522.093 557.27 521.806C557.697 521.52 558.176 521.32 558.681 521.219C559.185 521.118 559.704 521.117 560.209 521.217C560.713 521.317 561.193 521.515 561.621 521.8C562.049 522.085 562.417 522.452 562.703 522.88C562.989 523.307 563.188 523.787 563.289 524.291C563.389 524.795 563.39 525.315 563.29 525.819C563.189 526.324 562.991 526.803 562.705 527.231L543.504 556.031C543.157 556.552 542.69 556.982 542.142 557.285C541.594 557.588 540.981 557.755 540.356 557.773C540.319 557.773 540.283 557.774 540.247 557.774Z" fill="white"/>
</g>
<g filter="url(#filter15_d_630_327)">
<path d="M823.537 445.394C823.573 448.062 823.145 450.715 822.27 453.235L822.08 453.197C799.581 457.088 779.512 457.725 770.227 443.916C758.115 428.493 741.453 428.667 722.868 435.438L720.663 433.057L716.914 429.016L720.359 425.115L716.914 417.591L719.789 408.306L723.463 407.635L722.475 399.642L720.929 394.968L725.464 389.99L729.315 377.564L726.541 351.559C722.745 315.913 730.101 279.968 747.595 248.679L758.121 239.229L762.492 235.303L768.357 224.358L774.551 225.08L791.323 227.018L791.893 228.386L796.01 238.317L817.697 261.612L816.721 271.441L816.291 275.773L815.974 278.889L814.479 293.887L808.386 355.156L807.93 358.411L803.028 393.638C810.996 401.339 818.039 416.172 821.421 429.725C821.801 431.233 820.724 432.765 821.003 434.235C821.396 436.312 823.106 438.288 823.296 440.226C823.473 441.943 823.553 443.668 823.537 445.394V445.394Z" fill="#E6E6E6"/>
</g>
<g filter="url(#filter16_d_630_327)">
<path d="M780.583 220.435C796.671 220.435 809.713 207.394 809.713 191.307C809.713 175.219 796.671 162.178 780.583 162.178C764.494 162.178 751.452 175.219 751.452 191.307C751.452 207.394 764.494 220.435 780.583 220.435Z" fill="#FFB6B6"/>
</g>
<g filter="url(#filter17_d_630_327)">
<path d="M815.699 183.361C813.975 177.986 809.246 173.438 803.632 172.844C804.058 169.274 803.495 165.656 802.007 162.384C800.518 159.112 798.16 156.31 795.19 154.285C792.219 152.26 788.75 151.089 785.16 150.899C781.57 150.708 777.997 151.507 774.829 153.207C774.156 152.398 773.286 151.777 772.302 151.403C771.319 151.029 770.256 150.916 769.215 151.074C767.136 151.416 765.175 152.275 763.514 153.572C759.387 156.59 756.155 160.671 754.164 165.38C752.172 170.089 751.495 175.25 752.204 180.313C752.191 177.745 753.329 182.714 756.591 183.153C759.311 183.7 761.899 184.768 764.214 186.297C766.528 187.826 769.108 188.908 771.821 189.485C774.558 189.886 775.264 200.86 773.309 207.928C772.938 209.268 772.75 211.065 773.985 211.704C775.505 212.49 777.042 210.513 778.743 210.32C779.506 210.308 780.244 210.593 780.801 211.115C781.359 211.636 781.692 212.354 781.731 213.116C781.732 213.881 781.551 214.635 781.202 215.315C780.854 215.996 780.347 216.583 779.726 217.029C778.475 217.907 777.091 218.577 775.627 219.014L776.118 219.711C776.548 220.508 777.241 221.131 778.08 221.473C778.918 221.815 779.85 221.854 780.714 221.585C782.662 223.934 802.736 217.41 803.715 213.122C807.919 209.334 811.411 204.824 814.025 199.805C816.636 194.731 817.234 188.857 815.699 183.361V183.361Z" fill="#2F2E41"/>
</g>
<g filter="url(#filter18_d_630_327)">
<path d="M839.257 272.074C838.852 275.469 835.672 278.002 832.328 278.711C830.627 279.038 828.883 279.068 827.172 278.8C825.501 278.552 823.85 278.184 822.232 277.698C820.23 277.128 818.25 276.486 816.291 275.773C810.694 273.774 805.299 271.251 800.177 268.236C796.305 265.975 792.597 263.444 789.081 260.661C787.257 259.217 785.487 257.71 783.773 256.139L785.914 257.152C784.001 254.581 782.088 252.01 780.175 249.438C778.326 246.956 776.481 244.473 774.64 241.99C774.526 241.838 774.437 241.737 774.399 241.686V241.674C773.55 240.546 772.714 239.419 771.878 238.292C769.357 234.909 766.875 229.944 769.775 226.891C770.394 226.297 771.145 225.857 771.966 225.609C772.787 225.36 773.656 225.309 774.5 225.46C775.41 225.578 776.29 225.861 777.097 226.296C779.313 227.731 781.193 229.628 782.608 231.857C784.584 228.981 788.422 227.917 791.893 228.386C792.083 228.399 792.26 228.424 792.438 228.449C796.048 229.07 797.606 227.119 800.735 229.032C802.192 229.919 803.078 234.479 804.535 235.365C805.359 235.872 808.411 236.632 809.247 237.152C810.894 238.165 810.476 241.952 812.136 242.966C813.364 243.713 816.658 241.699 817.887 242.446C819.179 243.244 820.978 248.514 822.27 249.299C824.841 250.882 826.906 247.994 829.478 249.565C832.784 251.604 836.305 253.872 837.699 257.494C838.928 260.686 837.344 265.056 834.291 265.969C835.75 266.143 837.083 266.877 838.01 268.016C838.936 269.156 839.384 270.611 839.257 272.074V272.074Z" fill="#E6E6E6"/>
</g>
<g opacity="0.2" filter="url(#filter19_d_630_327)">
<path d="M816.291 275.773L815.974 278.889C812.384 278.543 808.851 277.747 805.46 276.52C800.995 275.021 797.123 272.143 794.401 268.299C792.678 265.715 790.88 263.144 789.081 260.661C786.091 256.507 783.127 252.631 780.67 249.477C777.667 245.664 775.413 242.902 774.64 241.99C774.526 241.838 774.437 241.737 774.399 241.686L774.361 241.648L774.399 241.674C789.451 260.723 803.668 271.707 816.721 271.441C816.721 271.441 818.254 276.482 816.291 275.773Z" fill="black"/>
</g>
<g filter="url(#filter20_d_630_327)">
<path d="M678.55 123.228C678.179 124.66 678.127 126.156 678.396 127.611C678.666 129.065 679.252 130.443 680.112 131.646C680.972 132.85 682.085 133.85 683.374 134.577C684.662 135.304 686.094 135.739 687.569 135.853L704.409 197.622L716.878 183.706L698.588 125.822C698.615 123.332 697.727 120.918 696.092 119.039C694.458 117.16 692.191 115.945 689.721 115.625C687.251 115.306 684.749 115.903 682.69 117.304C680.631 118.706 679.158 120.813 678.55 123.228Z" fill="#FFB8B8"/>
</g>
<g filter="url(#filter21_d_630_327)">
<path d="M777.414 281.181L777.3 275.557L766.685 255.43L766.292 254.695L766.266 254.657L758.121 239.229L718.817 164.715L714.596 163.165L714.807 157.112L714.596 150.498L709.525 147.098L707.362 142.999L704.297 143.873H704.284L704.195 143.898L690.793 147.66H690.781L687.994 149.231L685.46 156.831L684.906 160.429L685.46 166.965L691.794 168.231L689.696 174.933L696.063 194.211C704.031 227.905 714.912 256.988 733.698 273.594L735.244 276.127L747.468 296.128C749.136 298.864 751.577 301.045 754.483 302.395C757.389 303.745 760.63 304.205 763.796 303.716H763.809C765.959 303.382 768.019 302.615 769.864 301.461C771.566 300.411 773.053 299.049 774.247 297.446C776.43 294.547 777.584 291.003 777.528 287.375L777.414 281.181Z" fill="#E6E6E6"/>
</g>
<g filter="url(#filter22_d_630_327)">
<path d="M999.492 767.61L655.251 768C654.851 768 654.467 767.841 654.184 767.558C653.902 767.275 653.743 766.891 653.743 766.491C653.743 766.091 653.902 765.708 654.184 765.425C654.467 765.142 654.851 764.983 655.251 764.983L999.492 764.594C999.892 764.594 1000.28 764.753 1000.56 765.036C1000.84 765.318 1001 765.702 1001 766.102C1001 766.502 1000.84 766.886 1000.56 767.168C1000.28 767.451 999.892 767.61 999.492 767.61V767.61Z" fill="#CACACA"/>
</g>
<g filter="url(#filter23_d_630_327)">
<path d="M233.937 260.699C233.916 241.659 241.191 223.334 254.266 209.492L209.393 147.734C207.546 145.19 205.172 143.073 202.434 141.529C199.695 139.985 196.656 139.048 193.522 138.784C190.389 138.52 187.236 138.934 184.277 139.999C181.319 141.063 178.624 142.752 176.377 144.951C161.006 159.935 148.802 177.855 140.492 197.646C132.182 217.438 127.933 238.697 128 260.162C128 268.268 128.605 276.363 129.808 284.379C130.28 287.548 131.438 290.576 133.201 293.252C134.964 295.928 137.289 298.187 140.014 299.872C142.709 301.54 145.736 302.6 148.882 302.978C152.029 303.356 155.22 303.043 158.233 302.061L235.715 276.887C234.536 271.572 233.94 266.144 233.937 260.699V260.699Z" fill="#DBEDE1"/>
</g>
<g filter="url(#filter24_d_630_327)">
<path d="M238.057 285.17L157.505 311.342C154.523 312.305 151.784 313.898 149.473 316.013C147.161 318.128 145.331 320.715 144.107 323.598C142.882 326.482 142.292 329.596 142.376 332.727C142.46 335.859 143.217 338.936 144.594 341.75C156.065 365.022 172.976 385.187 193.893 400.538C214.81 415.889 239.119 425.975 264.76 429.941C267.883 430.421 271.073 430.22 274.11 429.351C277.148 428.482 279.962 426.967 282.359 424.909C284.753 422.856 286.674 420.31 287.991 417.444C289.308 414.579 289.989 411.463 289.988 408.31V333.078C278.057 329.983 267.075 323.991 258.017 315.633C248.958 307.276 242.102 296.812 238.057 285.17Z" fill="#E6E6E6"/>
</g>
<g filter="url(#filter25_d_630_327)">
<path d="M480.301 332.175C478.941 328.946 476.901 326.048 474.321 323.677C471.74 321.306 468.679 319.519 465.347 318.437L377.493 289.894C372.365 301.954 364.158 312.455 353.693 320.345C343.229 328.235 330.875 333.237 317.869 334.85V426.38C317.87 429.893 318.632 433.365 320.1 436.556C321.569 439.748 323.71 442.585 326.378 444.872C329.045 447.159 332.175 448.842 335.553 449.807C338.932 450.771 342.479 450.994 345.952 450.46C374.496 446.045 401.556 434.818 424.84 417.729C448.125 400.64 466.949 378.193 479.72 352.288C481.255 349.173 482.101 345.765 482.202 342.295C482.302 338.824 481.654 335.373 480.301 332.175Z" fill="#3F3D56"/>
</g>
<g filter="url(#filter26_d_630_327)">
<path d="M458.474 122.232C455.973 119.784 452.973 117.903 449.68 116.718C446.386 115.534 442.876 115.072 439.388 115.366C435.901 115.66 432.517 116.702 429.468 118.422C426.419 120.141 423.777 122.497 421.721 125.329L361.658 207.995C368.568 214.921 374.045 223.14 377.778 232.183C381.511 241.226 383.426 250.916 383.414 260.699C383.414 262.519 383.326 264.317 383.198 266.105L478.672 297.125C482.048 298.215 485.621 298.555 489.142 298.123C492.663 297.691 496.047 296.496 499.059 294.623C502.071 292.749 504.639 290.241 506.583 287.274C508.527 284.307 509.8 280.952 510.315 277.442C511.655 268.518 512.327 259.507 512.327 250.483C512.401 226.588 507.672 202.922 498.421 180.891C489.17 158.859 475.585 138.911 458.474 122.232V122.232Z" fill="#8078FD"/>
</g>
<g filter="url(#filter27_d_630_327)">
<path d="M308.675 185.966C321.534 185.951 334.177 189.271 345.369 195.601L382.029 145.146C383.898 142.576 385.187 139.632 385.807 136.515C386.427 133.399 386.363 130.186 385.621 127.097C384.902 124.066 383.534 121.228 381.611 118.778C379.689 116.328 377.257 114.324 374.485 112.905C351.851 101.394 326.824 95.377 301.432 95.34C276.039 95.303 250.995 101.247 228.328 112.692C225.469 114.134 222.959 116.18 220.97 118.689C218.98 121.198 217.561 124.109 216.808 127.221C216.067 130.289 216.001 133.481 216.615 136.577C217.23 139.673 218.51 142.598 220.367 145.149L261.955 202.387C275.196 191.739 291.684 185.944 308.675 185.966V185.966Z" fill="#FDE28C"/>
</g>
</g>
<defs>
<filter id="filter0_d_630_327" x="708.057" y="686.954" width="31.8491" height="70.3262" filterUnits="userSpaceOnUse" color-interpolation-filters="sRGB">
<feFlood flood-opacity="0" result="BackgroundImageFix"/>
<feColorMatrix in="SourceAlpha" type="matrix" values="0 0 0 0 0 0 0 0 0 0 0 0 0 0 0 0 0 0 127 0" result="hardAlpha"/>
<feOffset dy="4"/>
<feGaussianBlur stdDeviation="2"/>
<feComposite in2="hardAlpha" operator="out"/>
<feColorMatrix type="matrix" values="0 0 0 0 0 0 0 0 0 0 0 0 0 0 0 0 0 0 0.25 0"/>
<feBlend mode="normal" in2="BackgroundImageFix" result="effect1_dropShadow_630_327"/>
<feBlend mode="normal" in="SourceGraphic" in2="effect1_dropShadow_630_327" result="shape"/>
</filter>
<filter id="filter1_d_630_327" x="683.918" y="736.781" width="60.1016" height="36.1582" filterUnits="userSpaceOnUse" color-interpolation-filters="sRGB">
<feFlood flood-opacity="0" result="BackgroundImageFix"/>
<feColorMatrix in="SourceAlpha" type="matrix" values="0 0 0 0 0 0 0 0 0 0 0 0 0 0 0 0 0 0 127 0" result="hardAlpha"/>
<feOffset dy="4"/>
<feGaussianBlur stdDeviation="2"/>
<feComposite in2="hardAlpha" operator="out"/>
<feColorMatrix type="matrix" values="0 0 0 0 0 0 0 0 0 0 0 0 0 0 0 0 0 0 0.25 0"/>
<feBlend mode="normal" in2="BackgroundImageFix" result="effect1_dropShadow_630_327"/>
<feBlend mode="normal" in="SourceGraphic" in2="effect1_dropShadow_630_327" result="shape"/>
</filter>
<filter id="filter2_d_630_327" x="828.766" y="672.489" width="57.1475" height="70.9893" filterUnits="userSpaceOnUse" color-interpolation-filters="sRGB">
<feFlood flood-opacity="0" result="BackgroundImageFix"/>
<feColorMatrix in="SourceAlpha" type="matrix" values="0 0 0 0 0 0 0 0 0 0 0 0 0 0 0 0 0 0 127 0" result="hardAlpha"/>
<feOffset dy="4"/>
<feGaussianBlur stdDeviation="2"/>
<feComposite in2="hardAlpha" operator="out"/>
<feColorMatrix type="matrix" values="0 0 0 0 0 0 0 0 0 0 0 0 0 0 0 0 0 0 0.25 0"/>
<feBlend mode="normal" in2="BackgroundImageFix" result="effect1_dropShadow_630_327"/>
<feBlend mode="normal" in="SourceGraphic" in2="effect1_dropShadow_630_327" result="shape"/>
</filter>
<filter id="filter3_d_630_327" x="839.532" y="721.708" width="57.0554" height="49.9775" filterUnits="userSpaceOnUse" color-interpolation-filters="sRGB">
<feFlood flood-opacity="0" result="BackgroundImageFix"/>
<feColorMatrix in="SourceAlpha" type="matrix" values="0 0 0 0 0 0 0 0 0 0 0 0 0 0 0 0 0 0 127 0" result="hardAlpha"/>
<feOffset dy="4"/>
<feGaussianBlur stdDeviation="2"/>
<feComposite in2="hardAlpha" operator="out"/>
<feColorMatrix type="matrix" values="0 0 0 0 0 0 0 0 0 0 0 0 0 0 0 0 0 0 0.25 0"/>
<feBlend mode="normal" in2="BackgroundImageFix" result="effect1_dropShadow_630_327"/>
<feBlend mode="normal" in="SourceGraphic" in2="effect1_dropShadow_630_327" result="shape"/>
</filter>
<filter id="filter4_d_630_327" x="701.533" y="414.285" width="174.449" height="320.553" filterUnits="userSpaceOnUse" color-interpolation-filters="sRGB">
<feFlood flood-opacity="0" result="BackgroundImageFix"/>
<feColorMatrix in="SourceAlpha" type="matrix" values="0 0 0 0 0 0 0 0 0 0 0 0 0 0 0 0 0 0 127 0" result="hardAlpha"/>
<feOffset dy="4"/>
<feGaussianBlur stdDeviation="2"/>
<feComposite in2="hardAlpha" operator="out"/>
<feColorMatrix type="matrix" values="0 0 0 0 0 0 0 0 0 0 0 0 0 0 0 0 0 0 0.25 0"/>
<feBlend mode="normal" in2="BackgroundImageFix" result="effect1_dropShadow_630_327"/>
<feBlend mode="normal" in="SourceGraphic" in2="effect1_dropShadow_630_327" result="shape"/>
</filter>
<filter id="filter5_d_630_327" x="811.145" y="354.804" width="78.3811" height="78.377" filterUnits="userSpaceOnUse" color-interpolation-filters="sRGB">
<feFlood flood-opacity="0" result="BackgroundImageFix"/>
<feColorMatrix in="SourceAlpha" type="matrix" values="0 0 0 0 0 0 0 0 0 0 0 0 0 0 0 0 0 0 127 0" result="hardAlpha"/>
<feOffset dy="4"/>
<feGaussianBlur stdDeviation="2"/>
<feComposite in2="hardAlpha" operator="out"/>
<feColorMatrix type="matrix" values="0 0 0 0 0 0 0 0 0 0 0 0 0 0 0 0 0 0 0.25 0"/>
<feBlend mode="normal" in2="BackgroundImageFix" result="effect1_dropShadow_630_327"/>
<feBlend mode="normal" in="SourceGraphic" in2="effect1_dropShadow_630_327" result="shape"/>
</filter>
<filter id="filter6_d_630_327" x="828.02" y="371.674" width="44.6323" height="44.6318" filterUnits="userSpaceOnUse" color-interpolation-filters="sRGB">
<feFlood flood-opacity="0" result="BackgroundImageFix"/>
<feColorMatrix in="SourceAlpha" type="matrix" values="0 0 0 0 0 0 0 0 0 0 0 0 0 0 0 0 0 0 127 0" result="hardAlpha"/>
<feOffset dy="4"/>
<feGaussianBlur stdDeviation="2"/>
<feComposite in2="hardAlpha" operator="out"/>
<feColorMatrix type="matrix" values="0 0 0 0 0 0 0 0 0 0 0 0 0 0 0 0 0 0 0.25 0"/>
<feBlend mode="normal" in2="BackgroundImageFix" result="effect1_dropShadow_630_327"/>
<feBlend mode="normal" in="SourceGraphic" in2="effect1_dropShadow_630_327" result="shape"/>
</filter>
<filter id="filter7_d_630_327" x="824.245" y="353.312" width="47.7676" height="89.7578" filterUnits="userSpaceOnUse" color-interpolation-filters="sRGB">
<feFlood flood-opacity="0" result="BackgroundImageFix"/>
<feColorMatrix in="SourceAlpha" type="matrix" values="0 0 0 0 0 0 0 0 0 0 0 0 0 0 0 0 0 0 127 0" result="hardAlpha"/>
<feOffset dy="4"/>
<feGaussianBlur stdDeviation="2"/>
<feComposite in2="hardAlpha" operator="out"/>
<feColorMatrix type="matrix" values="0 0 0 0 0 0 0 0 0 0 0 0 0 0 0 0 0 0 0.25 0"/>
<feBlend mode="normal" in2="BackgroundImageFix" result="effect1_dropShadow_630_327"/>
<feBlend mode="normal" in="SourceGraphic" in2="effect1_dropShadow_630_327" result="shape"/>
</filter>
<filter id="filter8_d_630_327" x="759.064" y="249.414" width="101.408" height="166.904" filterUnits="userSpaceOnUse" color-interpolation-filters="sRGB">
<feFlood flood-opacity="0" result="BackgroundImageFix"/>
<feColorMatrix in="SourceAlpha" type="matrix" values="0 0 0 0 0 0 0 0 0 0 0 0 0 0 0 0 0 0 127 0" result="hardAlpha"/>
<feOffset dy="4"/>
<feGaussianBlur stdDeviation="2"/>
<feComposite in2="hardAlpha" operator="out"/>
<feColorMatrix type="matrix" values="0 0 0 0 0 0 0 0 0 0 0 0 0 0 0 0 0 0 0.25 0"/>
<feBlend mode="normal" in2="BackgroundImageFix" result="effect1_dropShadow_630_327"/>
<feBlend mode="normal" in="SourceGraphic" in2="effect1_dropShadow_630_327" result="shape"/>
</filter>
<filter id="filter9_d_630_327" x="453.844" y="107.29" width="191.245" height="105.589" filterUnits="userSpaceOnUse" color-interpolation-filters="sRGB">
<feFlood flood-opacity="0" result="BackgroundImageFix"/>
<feColorMatrix in="SourceAlpha" type="matrix" values="0 0 0 0 0 0 0 0 0 0 0 0 0 0 0 0 0 0 127 0" result="hardAlpha"/>
<feOffset dy="4"/>
<feGaussianBlur stdDeviation="2"/>
<feComposite in2="hardAlpha" operator="out"/>
<feColorMatrix type="matrix" values="0 0 0 0 0 0 0 0 0 0 0 0 0 0 0 0 0 0 0.25 0"/>
<feBlend mode="normal" in2="BackgroundImageFix" result="effect1_dropShadow_630_327"/>
<feBlend mode="normal" in="SourceGraphic" in2="effect1_dropShadow_630_327" result="shape"/>
</filter>
<filter id="filter10_d_630_327" x="629.999" y="66" width="78.3809" height="78.377" filterUnits="userSpaceOnUse" color-interpolation-filters="sRGB">
<feFlood flood-opacity="0" result="BackgroundImageFix"/>
<feColorMatrix in="SourceAlpha" type="matrix" values="0 0 0 0 0 0 0 0 0 0 0 0 0 0 0 0 0 0 127 0" result="hardAlpha"/>
<feOffset dy="4"/>
<feGaussianBlur stdDeviation="2"/>
<feComposite in2="hardAlpha" operator="out"/>
<feColorMatrix type="matrix" values="0 0 0 0 0 0 0 0 0 0 0 0 0 0 0 0 0 0 0.25 0"/>
<feBlend mode="normal" in2="BackgroundImageFix" result="effect1_dropShadow_630_327"/>
<feBlend mode="normal" in="SourceGraphic" in2="effect1_dropShadow_630_327" result="shape"/>
</filter>
<filter id="filter11_d_630_327" x="646.874" y="82.8711" width="44.6323" height="44.6318" filterUnits="userSpaceOnUse" color-interpolation-filters="sRGB">
<feFlood flood-opacity="0" result="BackgroundImageFix"/>
<feColorMatrix in="SourceAlpha" type="matrix" values="0 0 0 0 0 0 0 0 0 0 0 0 0 0 0 0 0 0 127 0" result="hardAlpha"/>
<feOffset dy="4"/>
<feGaussianBlur stdDeviation="2"/>
<feComposite in2="hardAlpha" operator="out"/>
<feColorMatrix type="matrix" values="0 0 0 0 0 0 0 0 0 0 0 0 0 0 0 0 0 0 0.25 0"/>
<feBlend mode="normal" in2="BackgroundImageFix" result="effect1_dropShadow_630_327"/>
<feBlend mode="normal" in="SourceGraphic" in2="effect1_dropShadow_630_327" result="shape"/>
</filter>
<filter id="filter12_d_630_327" x="329.702" y="441.806" width="191.245" height="105.589" filterUnits="userSpaceOnUse" color-interpolation-filters="sRGB">
<feFlood flood-opacity="0" result="BackgroundImageFix"/>
<feColorMatrix in="SourceAlpha" type="matrix" values="0 0 0 0 0 0 0 0 0 0 0 0 0 0 0 0 0 0 127 0" result="hardAlpha"/>
<feOffset dy="4"/>
<feGaussianBlur stdDeviation="2"/>
<feComposite in2="hardAlpha" operator="out"/>
<feColorMatrix type="matrix" values="0 0 0 0 0 0 0 0 0 0 0 0 0 0 0 0 0 0 0.25 0"/>
<feBlend mode="normal" in2="BackgroundImageFix" result="effect1_dropShadow_630_327"/>
<feBlend mode="normal" in="SourceGraphic" in2="effect1_dropShadow_630_327" result="shape"/>
</filter>
<filter id="filter13_d_630_327" x="505.857" y="504.271" width="78.3809" height="78.377" filterUnits="userSpaceOnUse" color-interpolation-filters="sRGB">
<feFlood flood-opacity="0" result="BackgroundImageFix"/>
<feColorMatrix in="SourceAlpha" type="matrix" values="0 0 0 0 0 0 0 0 0 0 0 0 0 0 0 0 0 0 127 0" result="hardAlpha"/>
<feOffset dy="4"/>
<feGaussianBlur stdDeviation="2"/>
<feComposite in2="hardAlpha" operator="out"/>
<feColorMatrix type="matrix" values="0 0 0 0 0 0 0 0 0 0 0 0 0 0 0 0 0 0 0.25 0"/>
<feBlend mode="normal" in2="BackgroundImageFix" result="effect1_dropShadow_630_327"/>
<feBlend mode="normal" in="SourceGraphic" in2="effect1_dropShadow_630_327" result="shape"/>
</filter>
<filter id="filter14_d_630_327" x="522.732" y="521.143" width="44.6323" height="44.6318" filterUnits="userSpaceOnUse" color-interpolation-filters="sRGB">
<feFlood flood-opacity="0" result="BackgroundImageFix"/>
<feColorMatrix in="SourceAlpha" type="matrix" values="0 0 0 0 0 0 0 0 0 0 0 0 0 0 0 0 0 0 127 0" result="hardAlpha"/>
<feOffset dy="4"/>
<feGaussianBlur stdDeviation="2"/>
<feComposite in2="hardAlpha" operator="out"/>
<feColorMatrix type="matrix" values="0 0 0 0 0 0 0 0 0 0 0 0 0 0 0 0 0 0 0.25 0"/>
<feBlend mode="normal" in2="BackgroundImageFix" result="effect1_dropShadow_630_327"/>
<feBlend mode="normal" in="SourceGraphic" in2="effect1_dropShadow_630_327" result="shape"/>
</filter>
<filter id="filter15_d_630_327" x="712.914" y="224.358" width="114.625" height="239.255" filterUnits="userSpaceOnUse" color-interpolation-filters="sRGB">
<feFlood flood-opacity="0" result="BackgroundImageFix"/>
<feColorMatrix in="SourceAlpha" type="matrix" values="0 0 0 0 0 0 0 0 0 0 0 0 0 0 0 0 0 0 127 0" result="hardAlpha"/>
<feOffset dy="4"/>
<feGaussianBlur stdDeviation="2"/>
<feComposite in2="hardAlpha" operator="out"/>
<feColorMatrix type="matrix" values="0 0 0 0 0 0 0 0 0 0 0 0 0 0 0 0 0 0 0.25 0"/>
<feBlend mode="normal" in2="BackgroundImageFix" result="effect1_dropShadow_630_327"/>
<feBlend mode="normal" in="SourceGraphic" in2="effect1_dropShadow_630_327" result="shape"/>
</filter>
<filter id="filter16_d_630_327" x="747.452" y="162.178" width="66.2612" height="66.2578" filterUnits="userSpaceOnUse" color-interpolation-filters="sRGB">
<feFlood flood-opacity="0" result="BackgroundImageFix"/>
<feColorMatrix in="SourceAlpha" type="matrix" values="0 0 0 0 0 0 0 0 0 0 0 0 0 0 0 0 0 0 127 0" result="hardAlpha"/>
<feOffset dy="4"/>
<feGaussianBlur stdDeviation="2"/>
<feComposite in2="hardAlpha" operator="out"/>
<feColorMatrix type="matrix" values="0 0 0 0 0 0 0 0 0 0 0 0 0 0 0 0 0 0 0.25 0"/>
<feBlend mode="normal" in2="BackgroundImageFix" result="effect1_dropShadow_630_327"/>
<feBlend mode="normal" in="SourceGraphic" in2="effect1_dropShadow_630_327" result="shape"/>
</filter>
<filter id="filter17_d_630_327" x="747.93" y="150.871" width="72.6028" height="79.21" filterUnits="userSpaceOnUse" color-interpolation-filters="sRGB">
<feFlood flood-opacity="0" result="BackgroundImageFix"/>
<feColorMatrix in="SourceAlpha" type="matrix" values="0 0 0 0 0 0 0 0 0 0 0 0 0 0 0 0 0 0 127 0" result="hardAlpha"/>
<feOffset dy="4"/>
<feGaussianBlur stdDeviation="2"/>
<feComposite in2="hardAlpha" operator="out"/>
<feColorMatrix type="matrix" values="0 0 0 0 0 0 0 0 0 0 0 0 0 0 0 0 0 0 0.25 0"/>
<feBlend mode="normal" in2="BackgroundImageFix" result="effect1_dropShadow_630_327"/>
<feBlend mode="normal" in="SourceGraphic" in2="effect1_dropShadow_630_327" result="shape"/>
</filter>
<filter id="filter18_d_630_327" x="764.469" y="225.375" width="78.8088" height="61.6064" filterUnits="userSpaceOnUse" color-interpolation-filters="sRGB">
<feFlood flood-opacity="0" result="BackgroundImageFix"/>
<feColorMatrix in="SourceAlpha" type="matrix" values="0 0 0 0 0 0 0 0 0 0 0 0 0 0 0 0 0 0 127 0" result="hardAlpha"/>
<feOffset dy="4"/>
<feGaussianBlur stdDeviation="2"/>
<feComposite in2="hardAlpha" operator="out"/>
<feColorMatrix type="matrix" values="0 0 0 0 0 0 0 0 0 0 0 0 0 0 0 0 0 0 0.25 0"/>
<feBlend mode="normal" in2="BackgroundImageFix" result="effect1_dropShadow_630_327"/>
<feBlend mode="normal" in="SourceGraphic" in2="effect1_dropShadow_630_327" result="shape"/>
</filter>
<filter id="filter19_d_630_327" x="770.361" y="241.648" width="50.9299" height="45.2402" filterUnits="userSpaceOnUse" color-interpolation-filters="sRGB">
<feFlood flood-opacity="0" result="BackgroundImageFix"/>
<feColorMatrix in="SourceAlpha" type="matrix" values="0 0 0 0 0 0 0 0 0 0 0 0 0 0 0 0 0 0 127 0" result="hardAlpha"/>
<feOffset dy="4"/>
<feGaussianBlur stdDeviation="2"/>
<feComposite in2="hardAlpha" operator="out"/>
<feColorMatrix type="matrix" values="0 0 0 0 0 0 0 0 0 0 0 0 0 0 0 0 0 0 0.25 0"/>
<feBlend mode="normal" in2="BackgroundImageFix" result="effect1_dropShadow_630_327"/>
<feBlend mode="normal" in="SourceGraphic" in2="effect1_dropShadow_630_327" result="shape"/>
</filter>
<filter id="filter20_d_630_327" x="674.227" y="115.541" width="46.6519" height="90.0811" filterUnits="userSpaceOnUse" color-interpolation-filters="sRGB">
<feFlood flood-opacity="0" result="BackgroundImageFix"/>
<feColorMatrix in="SourceAlpha" type="matrix" values="0 0 0 0 0 0 0 0 0 0 0 0 0 0 0 0 0 0 127 0" result="hardAlpha"/>
<feOffset dy="4"/>
<feGaussianBlur stdDeviation="2"/>
<feComposite in2="hardAlpha" operator="out"/>
<feColorMatrix type="matrix" values="0 0 0 0 0 0 0 0 0 0 0 0 0 0 0 0 0 0 0.25 0"/>
<feBlend mode="normal" in2="BackgroundImageFix" result="effect1_dropShadow_630_327"/>
<feBlend mode="normal" in="SourceGraphic" in2="effect1_dropShadow_630_327" result="shape"/>
</filter>
<filter id="filter21_d_630_327" x="680.906" y="142.999" width="100.625" height="168.907" filterUnits="userSpaceOnUse" color-interpolation-filters="sRGB">
<feFlood flood-opacity="0" result="BackgroundImageFix"/>
<feColorMatrix in="SourceAlpha" type="matrix" values="0 0 0 0 0 0 0 0 0 0 0 0 0 0 0 0 0 0 127 0" result="hardAlpha"/>
<feOffset dy="4"/>
<feGaussianBlur stdDeviation="2"/>
<feComposite in2="hardAlpha" operator="out"/>
<feColorMatrix type="matrix" values="0 0 0 0 0 0 0 0 0 0 0 0 0 0 0 0 0 0 0.25 0"/>
<feBlend mode="normal" in2="BackgroundImageFix" result="effect1_dropShadow_630_327"/>
<feBlend mode="normal" in="SourceGraphic" in2="effect1_dropShadow_630_327" result="shape"/>
</filter>
<filter id="filter22_d_630_327" x="649.743" y="764.594" width="355.257" height="11.4053" filterUnits="userSpaceOnUse" color-interpolation-filters="sRGB">
<feFlood flood-opacity="0" result="BackgroundImageFix"/>
<feColorMatrix in="SourceAlpha" type="matrix" values="0 0 0 0 0 0 0 0 0 0 0 0 0 0 0 0 0 0 127 0" result="hardAlpha"/>
<feOffset dy="4"/>
<feGaussianBlur stdDeviation="2"/>
<feComposite in2="hardAlpha" operator="out"/>
<feColorMatrix type="matrix" values="0 0 0 0 0 0 0 0 0 0 0 0 0 0 0 0 0 0 0.25 0"/>
<feBlend mode="normal" in2="BackgroundImageFix" result="effect1_dropShadow_630_327"/>
<feBlend mode="normal" in="SourceGraphic" in2="effect1_dropShadow_630_327" result="shape"/>
</filter>
<filter id="filter23_d_630_327" x="123.999" y="138.707" width="134.267" height="172.426" filterUnits="userSpaceOnUse" color-interpolation-filters="sRGB">
<feFlood flood-opacity="0" result="BackgroundImageFix"/>
<feColorMatrix in="SourceAlpha" type="matrix" values="0 0 0 0 0 0 0 0 0 0 0 0 0 0 0 0 0 0 127 0" result="hardAlpha"/>
<feOffset dy="4"/>
<feGaussianBlur stdDeviation="2"/>
<feComposite in2="hardAlpha" operator="out"/>
<feColorMatrix type="matrix" values="0 0 0 0 0 0 0 0 0 0 0 0 0 0 0 0 0 0 0.25 0"/>
<feBlend mode="normal" in2="BackgroundImageFix" result="effect1_dropShadow_630_327"/>
<feBlend mode="normal" in="SourceGraphic" in2="effect1_dropShadow_630_327" result="shape"/>
</filter>
<filter id="filter24_d_630_327" x="138.368" y="285.17" width="155.619" height="153.025" filterUnits="userSpaceOnUse" color-interpolation-filters="sRGB">
<feFlood flood-opacity="0" result="BackgroundImageFix"/>
<feColorMatrix in="SourceAlpha" type="matrix" values="0 0 0 0 0 0 0 0 0 0 0 0 0 0 0 0 0 0 127 0" result="hardAlpha"/>
<feOffset dy="4"/>
<feGaussianBlur stdDeviation="2"/>
<feComposite in2="hardAlpha" operator="out"/>
<feColorMatrix type="matrix" values="0 0 0 0 0 0 0 0 0 0 0 0 0 0 0 0 0 0 0.25 0"/>
<feBlend mode="normal" in2="BackgroundImageFix" result="effect1_dropShadow_630_327"/>
<feBlend mode="normal" in="SourceGraphic" in2="effect1_dropShadow_630_327" result="shape"/>
</filter>
<filter id="filter25_d_630_327" x="313.869" y="289.894" width="172.343" height="168.85" filterUnits="userSpaceOnUse" color-interpolation-filters="sRGB">
<feFlood flood-opacity="0" result="BackgroundImageFix"/>
<feColorMatrix in="SourceAlpha" type="matrix" values="0 0 0 0 0 0 0 0 0 0 0 0 0 0 0 0 0 0 127 0" result="hardAlpha"/>
<feOffset dy="4"/>
<feGaussianBlur stdDeviation="2"/>
<feComposite in2="hardAlpha" operator="out"/>
<feColorMatrix type="matrix" values="0 0 0 0 0 0 0 0 0 0 0 0 0 0 0 0 0 0 0.25 0"/>
<feBlend mode="normal" in2="BackgroundImageFix" result="effect1_dropShadow_630_327"/>
<feBlend mode="normal" in="SourceGraphic" in2="effect1_dropShadow_630_327" result="shape"/>
</filter>
<filter id="filter26_d_630_327" x="357.658" y="115.28" width="158.671" height="191.024" filterUnits="userSpaceOnUse" color-interpolation-filters="sRGB">
<feFlood flood-opacity="0" result="BackgroundImageFix"/>
<feColorMatrix in="SourceAlpha" type="matrix" values="0 0 0 0 0 0 0 0 0 0 0 0 0 0 0 0 0 0 127 0" result="hardAlpha"/>
<feOffset dy="4"/>
<feGaussianBlur stdDeviation="2"/>
<feComposite in2="hardAlpha" operator="out"/>
<feColorMatrix type="matrix" values="0 0 0 0 0 0 0 0 0 0 0 0 0 0 0 0 0 0 0.25 0"/>
<feBlend mode="normal" in2="BackgroundImageFix" result="effect1_dropShadow_630_327"/>
<feBlend mode="normal" in="SourceGraphic" in2="effect1_dropShadow_630_327" result="shape"/>
</filter>
<filter id="filter27_d_630_327" x="212.198" y="95.3398" width="178.031" height="115.047" filterUnits="userSpaceOnUse" color-interpolation-filters="sRGB">
<feFlood flood-opacity="0" result="BackgroundImageFix"/>
<feColorMatrix in="SourceAlpha" type="matrix" values="0 0 0 0 0 0 0 0 0 0 0 0 0 0 0 0 0 0 127 0" result="hardAlpha"/>
<feOffset dy="4"/>
<feGaussianBlur stdDeviation="2"/>
<feComposite in2="hardAlpha" operator="out"/>
<feColorMatrix type="matrix" values="0 0 0 0 0 0 0 0 0 0 0 0 0 0 0 0 0 0 0.25 0"/>
<feBlend mode="normal" in2="BackgroundImageFix" result="effect1_dropShadow_630_327"/>
<feBlend mode="normal" in="SourceGraphic" in2="effect1_dropShadow_630_327" result="shape"/>
</filter>
<clipPath id="clip0_630_327">
<rect width="873" height="702" fill="white" transform="translate(128 66)"/>
</clipPath>
</defs>
</svg>
