<svg width="343" height="119" viewBox="0 0 343 119" fill="none" xmlns="http://www.w3.org/2000/svg">
<g filter="url(#filter0_d_615_199)">
<path d="M45.6562 66.3594H59.6719C59.3906 70.9531 58.125 75.0312 55.875 78.5938C53.6562 82.1562 50.5469 84.9375 46.5469 86.9375C42.5781 88.9375 37.7969 89.9375 32.2031 89.9375C27.8281 89.9375 23.9062 89.1875 20.4375 87.6875C16.9688 86.1562 14 83.9688 11.5312 81.125C9.09375 78.2812 7.23438 74.8438 5.95312 70.8125C4.67188 66.7812 4.03125 62.2656 4.03125 57.2656V52.5312C4.03125 47.5312 4.6875 43.0156 6 38.9844C7.34375 34.9219 9.25 31.4688 11.7188 28.625C14.2188 25.7812 17.2031 23.5938 20.6719 22.0625C24.1406 20.5312 28.0156 19.7656 32.2969 19.7656C37.9844 19.7656 42.7812 20.7969 46.6875 22.8594C50.625 24.9219 53.6719 27.7656 55.8281 31.3906C58.0156 35.0156 59.3281 39.1406 59.7656 43.7656H45.7031C45.5469 41.0156 45 38.6875 44.0625 36.7812C43.125 34.8438 41.7031 33.3906 39.7969 32.4219C37.9219 31.4219 35.4219 30.9219 32.2969 30.9219C29.9531 30.9219 27.9062 31.3594 26.1562 32.2344C24.4062 33.1094 22.9375 34.4375 21.75 36.2188C20.5625 38 19.6719 40.25 19.0781 42.9688C18.5156 45.6562 18.2344 48.8125 18.2344 52.4375V57.2656C18.2344 60.7969 18.5 63.9062 19.0312 66.5938C19.5625 69.25 20.375 71.5 21.4688 73.3438C22.5938 75.1562 24.0312 76.5312 25.7812 77.4688C27.5625 78.375 29.7031 78.8281 32.2031 78.8281C35.1406 78.8281 37.5625 78.3594 39.4688 77.4219C41.375 76.4844 42.8281 75.0938 43.8281 73.25C44.8594 71.4062 45.4688 69.1094 45.6562 66.3594ZM81.2344 17V89H67.7344V17H81.2344ZM79.3125 61.8594H75.6094C75.6406 58.3281 76.1094 55.0781 77.0156 52.1094C77.9219 49.1094 79.2188 46.5156 80.9062 44.3281C82.5938 42.1094 84.6094 40.3906 86.9531 39.1719C89.3281 37.9531 91.9531 37.3438 94.8281 37.3438C97.3281 37.3438 99.5938 37.7031 101.625 38.4219C103.688 39.1094 105.453 40.2344 106.922 41.7969C108.422 43.3281 109.578 45.3438 110.391 47.8438C111.203 50.3438 111.609 53.375 111.609 56.9375V89H98.0156V56.8438C98.0156 54.5938 97.6875 52.8281 97.0312 51.5469C96.4062 50.2344 95.4844 49.3125 94.2656 48.7812C93.0781 48.2188 91.6094 47.9375 89.8594 47.9375C87.9219 47.9375 86.2656 48.2969 84.8906 49.0156C83.5469 49.7344 82.4688 50.7344 81.6562 52.0156C80.8438 53.2656 80.25 54.7344 79.875 56.4219C79.5 58.1094 79.3125 59.9219 79.3125 61.8594ZM198.609 63.9219C198.484 67.1094 198.016 70.25 197.203 73.3438C196.391 76.4375 195.156 79.2344 193.5 81.7344C191.875 84.2344 189.797 86.2344 187.266 87.7344C184.734 89.2344 181.672 89.9844 178.078 89.9844C176.047 89.9844 174.219 89.625 172.594 88.9062C170.969 88.1875 169.594 87.1719 168.469 85.8594C167.344 84.5156 166.516 82.9062 165.984 81.0312C165.453 79.1562 165.266 77.0469 165.422 74.7031L167.812 47.7031H177.188L174.844 74.7031C174.656 76.3281 174.672 77.6562 174.891 78.6875C175.141 79.7188 175.516 80.5156 176.016 81.0781C176.547 81.6406 177.141 82.0469 177.797 82.2969C178.484 82.5156 179.156 82.625 179.812 82.625C181.312 82.625 182.688 82.1562 183.938 81.2188C185.188 80.2812 186.266 78.9844 187.172 77.3281C188.078 75.6719 188.797 73.7344 189.328 71.5156C189.859 69.2656 190.156 66.8438 190.219 64.25C190.438 60.0938 190.234 56.25 189.609 52.7188C189.016 49.1875 187.984 46.0312 186.516 43.25C185.078 40.4375 183.203 38.0625 180.891 36.125C178.578 34.1562 175.828 32.6562 172.641 31.625C169.453 30.5625 165.812 30.0312 161.719 30.0312C157.875 30.0312 154.328 30.625 151.078 31.8125C147.859 33 144.969 34.7031 142.406 36.9219C139.875 39.1406 137.688 41.7969 135.844 44.8906C134.031 47.9531 132.594 51.375 131.531 55.1562C130.5 58.9062 129.891 62.9375 129.703 67.25C129.484 71.7812 129.719 75.9062 130.406 79.625C131.125 83.3438 132.266 86.6094 133.828 89.4219C135.422 92.2656 137.406 94.6406 139.781 96.5469C142.156 98.4531 144.922 99.8906 148.078 100.859C151.234 101.828 154.75 102.312 158.625 102.312C161.344 102.312 164.109 102 166.922 101.375C169.766 100.781 172.156 100.016 174.094 99.0781L175.875 106.062C173.688 107.469 170.953 108.516 167.672 109.203C164.422 109.891 161.344 110.234 158.438 110.234C153.469 110.234 148.938 109.625 144.844 108.406C140.781 107.219 137.188 105.438 134.062 103.062C130.938 100.719 128.328 97.8125 126.234 94.3438C124.172 90.875 122.641 86.875 121.641 82.3438C120.672 77.8125 120.297 72.7812 120.516 67.25C120.734 62.125 121.531 57.2969 122.906 52.7656C124.281 48.2344 126.156 44.125 128.531 40.4375C130.906 36.75 133.75 33.5781 137.062 30.9219C140.406 28.2344 144.156 26.1719 148.312 24.7344C152.469 23.2969 157 22.5781 161.906 22.5781C166.781 22.5781 171.203 23.2188 175.172 24.5C179.172 25.7812 182.672 27.625 185.672 30.0312C188.672 32.4062 191.172 35.2969 193.172 38.7031C195.172 42.0781 196.625 45.8906 197.531 50.1406C198.438 54.3906 198.797 58.9844 198.609 63.9219ZM151.266 68.8438C151.109 70.9062 151.125 72.7344 151.312 74.3281C151.5 75.9219 151.859 77.2656 152.391 78.3594C152.922 79.4531 153.609 80.2812 154.453 80.8438C155.328 81.375 156.359 81.6406 157.547 81.6406C158.203 81.6406 158.922 81.4844 159.703 81.1719C160.484 80.8281 161.281 80.2656 162.094 79.4844C162.906 78.7031 163.672 77.625 164.391 76.25C165.141 74.8438 165.766 73.0781 166.266 70.9531L170.25 75.6875C169.531 78.0312 168.641 80.0938 167.578 81.875C166.516 83.625 165.297 85.0938 163.922 86.2812C162.578 87.4688 161.109 88.3594 159.516 88.9531C157.922 89.5469 156.203 89.8438 154.359 89.8438C152.078 89.8438 150.047 89.3594 148.266 88.3906C146.484 87.3906 145 85.9688 143.812 84.125C142.625 82.2812 141.766 80.0781 141.234 77.5156C140.734 74.9219 140.641 72.0312 140.953 68.8438C141.297 65.6562 141.922 62.7031 142.828 59.9844C143.734 57.2656 144.859 54.8438 146.203 52.7188C147.547 50.5625 149.078 48.7344 150.797 47.2344C152.547 45.7031 154.438 44.5469 156.469 43.7656C158.5 42.9844 160.625 42.5938 162.844 42.5938C166.438 42.5938 169.266 43.1094 171.328 44.1406C173.391 45.1719 175.344 46.3594 177.188 47.7031L172.406 54.125C171.5 53.3125 170.312 52.5312 168.844 51.7812C167.406 51 165.688 50.6094 163.688 50.6094C161.844 50.6094 160.219 51 158.812 51.7812C157.438 52.5625 156.234 53.7344 155.203 55.2969C154.203 56.8281 153.375 58.7344 152.719 61.0156C152.062 63.2656 151.578 65.875 151.266 68.8438ZM221.438 49.3438V89H207.938V38.2812H220.641L221.438 49.3438ZM236.719 37.9531L236.484 50.4688C235.828 50.375 235.031 50.2969 234.094 50.2344C233.188 50.1406 232.359 50.0938 231.609 50.0938C229.703 50.0938 228.047 50.3438 226.641 50.8438C225.266 51.3125 224.109 52.0156 223.172 52.9531C222.266 53.8906 221.578 55.0312 221.109 56.375C220.672 57.7188 220.422 59.25 220.359 60.9688L217.641 60.125C217.641 56.8438 217.969 53.8281 218.625 51.0781C219.281 48.2969 220.234 45.875 221.484 43.8125C222.766 41.75 224.328 40.1562 226.172 39.0312C228.016 37.9062 230.125 37.3438 232.5 37.3438C233.25 37.3438 234.016 37.4062 234.797 37.5312C235.578 37.625 236.219 37.7656 236.719 37.9531ZM257.344 17V89H243.797V17H257.344ZM282.75 38.2812V89H269.203V38.2812H282.75ZM268.359 25.0625C268.359 23.0938 269.047 21.4687 270.422 20.1875C271.797 18.9063 273.641 18.2656 275.953 18.2656C278.234 18.2656 280.062 18.9063 281.438 20.1875C282.844 21.4687 283.547 23.0938 283.547 25.0625C283.547 27.0312 282.844 28.6563 281.438 29.9375C280.062 31.2187 278.234 31.8594 275.953 31.8594C273.641 31.8594 271.797 31.2187 270.422 29.9375C269.047 28.6563 268.359 27.0312 268.359 25.0625ZM317.25 89.9375C313.312 89.9375 309.781 89.3125 306.656 88.0625C303.531 86.7812 300.875 85.0156 298.688 82.7656C296.531 80.5156 294.875 77.9062 293.719 74.9375C292.562 71.9375 291.984 68.75 291.984 65.375V63.5C291.984 59.6562 292.531 56.1406 293.625 52.9531C294.719 49.7656 296.281 47 298.312 44.6562C300.375 42.3125 302.875 40.5156 305.812 39.2656C308.75 37.9844 312.062 37.3438 315.75 37.3438C319.344 37.3438 322.531 37.9375 325.312 39.125C328.094 40.3125 330.422 42 332.297 44.1875C334.203 46.375 335.641 49 336.609 52.0625C337.578 55.0938 338.062 58.4688 338.062 62.1875V67.8125H297.75V58.8125H324.797V57.7812C324.797 55.9062 324.453 54.2344 323.766 52.7656C323.109 51.2656 322.109 50.0781 320.766 49.2031C319.422 48.3281 317.703 47.8906 315.609 47.8906C313.828 47.8906 312.297 48.2812 311.016 49.0625C309.734 49.8438 308.688 50.9375 307.875 52.3438C307.094 53.75 306.5 55.4062 306.094 57.3125C305.719 59.1875 305.531 61.25 305.531 63.5V65.375C305.531 67.4062 305.812 69.2812 306.375 71C306.969 72.7188 307.797 74.2031 308.859 75.4531C309.953 76.7031 311.266 77.6719 312.797 78.3594C314.359 79.0469 316.125 79.3906 318.094 79.3906C320.531 79.3906 322.797 78.9219 324.891 77.9844C327.016 77.0156 328.844 75.5625 330.375 73.625L336.938 80.75C335.875 82.2812 334.422 83.75 332.578 85.1562C330.766 86.5625 328.578 87.7188 326.016 88.625C323.453 89.5 320.531 89.9375 317.25 89.9375Z" fill="#3F3D56"/>
</g>
<defs>
<filter id="filter0_d_615_199" x="0.03125" y="17" width="342.031" height="101.234" filterUnits="userSpaceOnUse" color-interpolation-filters="sRGB">
<feFlood flood-opacity="0" result="BackgroundImageFix"/>
<feColorMatrix in="SourceAlpha" type="matrix" values="0 0 0 0 0 0 0 0 0 0 0 0 0 0 0 0 0 0 127 0" result="hardAlpha"/>
<feOffset dy="4"/>
<feGaussianBlur stdDeviation="2"/>
<feComposite in2="hardAlpha" operator="out"/>
<feColorMatrix type="matrix" values="0 0 0 0 0.94902 0 0 0 0 0.960784 0 0 0 0 0.980392 0 0 0 0.25 0"/>
<feBlend mode="normal" in2="BackgroundImageFix" result="effect1_dropShadow_615_199"/>
<feBlend mode="normal" in="SourceGraphic" in2="effect1_dropShadow_615_199" result="shape"/>
</filter>
</defs>
</svg>
